<svg xmlns="http://www.w3.org/2000/svg" viewBox="0 0 512 512"><g fill="#fff"><rect x="212" y="0" width="42" height="1"/><rect x="180" y="1" width="78" height="1"/><rect x="179" y="2" width="80" height="1"/><rect x="154" y="3" width="110" height="1"/><rect x="139" y="4" width="129" height="1"/><rect x="139" y="5" width="129" height="1"/><rect x="129" y="6" width="143" height="1"/><rect x="125" y="7" width="150" height="1"/><rect x="119" y="8" width="158" height="1"/><rect x="113" y="9" width="168" height="1"/><rect x="110" y="10" width="172" height="1"/><rect x="105" y="11" width="180" height="1"/><rect x="102" y="12" width="184" height="1"/><rect x="99" y="13" width="191" height="1"/><rect x="92" y="14" width="201" height="1"/><rect x="88" y="15" width="208" height="1"/><rect x="80" y="16" width="3" height="1"/><rect x="85" y="16" width="213" height="1"/><rect x="80" y="17" width="220" height="1"/><rect x="76" y="18" width="227" height="1"/><rect x="73" y="19" width="232" height="1"/><rect x="70" y="20" width="237" height="1"/><rect x="62" y="21" width="249" height="1"/><rect x="62" y="22" width="249" height="1"/><rect x="56" y="23" width="258" height="1"/><rect x="52" y="24" width="264" height="1"/><rect x="49" y="25" width="268" height="1"/><rect x="318" y="25" width="2" height="1"/><rect x="45" y="26" width="275" height="1"/><rect x="42" y="27" width="279" height="1"/><rect x="38" y="28" width="286" height="1"/><rect x="38" y="29" width="292" height="1"/><rect x="37" y="30" width="293" height="1"/><rect x="34" y="31" width="296" height="1"/><rect x="34" y="32" width="297" height="1"/><rect x="32" y="33" width="303" height="1"/><rect x="31" y="34" width="304" height="1"/><rect x="30" y="35" width="306" height="1"/><rect x="28" y="36" width="309" height="1"/><rect x="27" y="37" width="313" height="1"/><rect x="26" y="38" width="315" height="1"/><rect x="25" y="39" width="320" height="1"/><rect x="24" y="40" width="321" height="1"/><rect x="22" y="41" width="325" height="1"/><rect x="20" y="42" width="328" height="1"/><rect x="21" y="43" width="330" height="1"/><rect x="19" y="44" width="332" height="1"/><rect x="17" y="45" width="339" height="1"/><rect x="17" y="46" width="339" height="1"/><rect x="17" y="47" width="340" height="1"/><rect x="16" y="48" width="343" height="1"/><rect x="16" y="49" width="346" height="1"/><rect x="15" y="50" width="347" height="1"/><rect x="15" y="51" width="350" height="1"/><rect x="14" y="52" width="352" height="1"/><rect x="14" y="53" width="352" height="1"/><rect x="14" y="54" width="355" height="1"/><rect x="13" y="55" width="357" height="1"/><rect x="13" y="56" width="359" height="1"/><rect x="373" y="56" width="2" height="1"/><rect x="12" y="57" width="364" height="1"/><rect x="12" y="58" width="364" height="1"/><rect x="11" y="59" width="368" height="1"/><rect x="11" y="60" width="369" height="1"/><rect x="11" y="61" width="370" height="1"/><rect x="10" y="62" width="373" height="1"/><rect x="10" y="63" width="374" height="1"/><rect x="9" y="64" width="377" height="1"/><rect x="9" y="65" width="378" height="1"/><rect x="9" y="66" width="380" height="1"/><rect x="8" y="67" width="383" height="1"/><rect x="392" y="67" width="2" height="1"/><rect x="8" y="68" width="386" height="1"/><rect x="8" y="69" width="389" height="1"/><rect x="7" y="70" width="391" height="1"/><rect x="7" y="71" width="391" height="1"/><rect x="7" y="72" width="392" height="1"/><rect x="6" y="73" width="394" height="1"/><rect x="6" y="74" width="398" height="1"/><rect x="6" y="75" width="398" height="1"/><rect x="5" y="76" width="402" height="1"/><rect x="5" y="77" width="403" height="1"/><rect x="5" y="78" width="404" height="1"/><rect x="4" y="79" width="407" height="1"/><rect x="4" y="80" width="408" height="1"/><rect x="4" y="81" width="410" height="1"/><rect x="415" y="81" width="2" height="1"/><rect x="3" y="82" width="415" height="1"/><rect x="3" y="83" width="415" height="1"/><rect x="3" y="84" width="418" height="1"/><rect x="3" y="85" width="419" height="1"/><rect x="3" y="86" width="422" height="1"/><rect x="2" y="87" width="423" height="1"/><rect x="2" y="88" width="424" height="1"/><rect x="2" y="89" width="426" height="1"/><rect x="2" y="90" width="427" height="1"/><rect x="2" y="91" width="429" height="1"/><rect x="2" y="92" width="431" height="1"/><rect x="434" y="92" width="2" height="1"/><rect x="2" y="93" width="434" height="1"/><rect x="2" y="94" width="434" height="1"/><rect x="2" y="95" width="435" height="1"/><rect x="2" y="96" width="437" height="1"/><rect x="2" y="97" width="438" height="1"/><rect x="441" y="97" width="2" height="1"/><rect x="2" y="98" width="441" height="1"/><rect x="2" y="99" width="441" height="1"/><rect x="2" y="100" width="442" height="1"/><rect x="2" y="101" width="443" height="1"/><rect x="2" y="102" width="445" height="1"/><rect x="2" y="103" width="448" height="1"/><rect x="2" y="104" width="448" height="1"/><rect x="2" y="105" width="448" height="1"/><rect x="2" y="106" width="450" height="1"/><rect x="2" y="107" width="451" height="1"/><rect x="2" y="108" width="452" height="1"/><rect x="2" y="109" width="455" height="1"/><rect x="2" y="110" width="455" height="1"/><rect x="2" y="111" width="456" height="1"/><rect x="2" y="112" width="457" height="1"/><rect x="2" y="113" width="458" height="1"/><rect x="2" y="114" width="460" height="1"/><rect x="2" y="115" width="462" height="1"/><rect x="2" y="116" width="462" height="1"/><rect x="2" y="117" width="465" height="1"/><rect x="2" y="118" width="465" height="1"/><rect x="2" y="119" width="465" height="1"/><rect x="2" y="120" width="164" height="1"/><rect x="213" y="120" width="255" height="1"/><rect x="469" y="120" width="1" height="1"/><rect x="2" y="121" width="163" height="1"/><rect x="213" y="121" width="257" height="1"/><rect x="2" y="122" width="151" height="1"/><rect x="222" y="122" width="3" height="1"/><rect x="226" y="122" width="244" height="1"/><rect x="2" y="123" width="146" height="1"/><rect x="222" y="123" width="3" height="1"/><rect x="230" y="123" width="240" height="1"/><rect x="2" y="124" width="141" height="1"/><rect x="234" y="124" width="240" height="1"/><rect x="2" y="125" width="133" height="1"/><rect x="234" y="125" width="4" height="1"/><rect x="241" y="125" width="233" height="1"/><rect x="2" y="126" width="129" height="1"/><rect x="244" y="126" width="229" height="1"/><rect x="2" y="127" width="126" height="1"/><rect x="247" y="127" width="228" height="1"/><rect x="2" y="128" width="122" height="1"/><rect x="125" y="128" width="3" height="1"/><rect x="251" y="128" width="226" height="1"/><rect x="2" y="129" width="117" height="1"/><rect x="125" y="129" width="3" height="1"/><rect x="254" y="129" width="224" height="1"/><rect x="2" y="130" width="110" height="1"/><rect x="258" y="130" width="220" height="1"/><rect x="2" y="131" width="108" height="1"/><rect x="261" y="131" width="219" height="1"/><rect x="2" y="132" width="103" height="1"/><rect x="262" y="132" width="218" height="1"/><rect x="2" y="133" width="101" height="1"/><rect x="265" y="133" width="215" height="1"/><rect x="2" y="134" width="94" height="1"/><rect x="268" y="134" width="212" height="1"/><rect x="2" y="135" width="93" height="1"/><rect x="271" y="135" width="211" height="1"/><rect x="2" y="136" width="93" height="1"/><rect x="272" y="136" width="210" height="1"/><rect x="2" y="137" width="93" height="1"/><rect x="275" y="137" width="210" height="1"/><rect x="2" y="138" width="93" height="1"/><rect x="275" y="138" width="210" height="1"/><rect x="2" y="139" width="93" height="1"/><rect x="278" y="139" width="207" height="1"/><rect x="2" y="140" width="93" height="1"/><rect x="278" y="140" width="2" height="1"/><rect x="281" y="140" width="205" height="1"/><rect x="2" y="141" width="93" height="1"/><rect x="283" y="141" width="204" height="1"/><rect x="2" y="142" width="93" height="1"/><rect x="286" y="142" width="201" height="1"/><rect x="2" y="143" width="93" height="1"/><rect x="286" y="143" width="202" height="1"/><rect x="2" y="144" width="93" height="1"/><rect x="287" y="144" width="201" height="1"/><rect x="2" y="145" width="93" height="1"/><rect x="287" y="145" width="2" height="1"/><rect x="291" y="145" width="198" height="1"/><rect x="2" y="146" width="93" height="1"/><rect x="292" y="146" width="198" height="1"/><rect x="2" y="147" width="93" height="1"/><rect x="293" y="147" width="198" height="1"/><rect x="2" y="148" width="93" height="1"/><rect x="296" y="148" width="195" height="1"/><rect x="2" y="149" width="93" height="1"/><rect x="296" y="149" width="196" height="1"/><rect x="2" y="150" width="93" height="1"/><rect x="299" y="150" width="193" height="1"/><rect x="2" y="151" width="93" height="1"/><rect x="300" y="151" width="194" height="1"/><rect x="2" y="152" width="93" height="1"/><rect x="302" y="152" width="193" height="1"/><rect x="2" y="153" width="93" height="1"/><rect x="303" y="153" width="192" height="1"/><rect x="2" y="154" width="93" height="1"/><rect x="305" y="154" width="190" height="1"/><rect x="2" y="155" width="93" height="1"/><rect x="306" y="155" width="190" height="1"/><rect x="2" y="156" width="93" height="1"/><rect x="307" y="156" width="189" height="1"/><rect x="2" y="157" width="93" height="1"/><rect x="309" y="157" width="188" height="1"/><rect x="2" y="158" width="93" height="1"/><rect x="310" y="158" width="188" height="1"/><rect x="2" y="159" width="93" height="1"/><rect x="309" y="159" width="189" height="1"/><rect x="2" y="160" width="93" height="1"/><rect x="313" y="160" width="186" height="1"/><rect x="2" y="161" width="93" height="1"/><rect x="314" y="161" width="185" height="1"/><rect x="2" y="162" width="93" height="1"/><rect x="315" y="162" width="185" height="1"/><rect x="2" y="163" width="93" height="1"/><rect x="316" y="163" width="185" height="1"/><rect x="2" y="164" width="93" height="1"/><rect x="316" y="164" width="185" height="1"/><rect x="2" y="165" width="93" height="1"/><rect x="319" y="165" width="182" height="1"/><rect x="2" y="166" width="93" height="1"/><rect x="320" y="166" width="182" height="1"/><rect x="2" y="167" width="93" height="1"/><rect x="320" y="167" width="182" height="1"/><rect x="2" y="168" width="93" height="1"/><rect x="320" y="168" width="2" height="1"/><rect x="323" y="168" width="180" height="1"/><rect x="2" y="169" width="93" height="1"/><rect x="324" y="169" width="180" height="1"/><rect x="2" y="170" width="93" height="1"/><rect x="324" y="170" width="180" height="1"/><rect x="2" y="171" width="93" height="1"/><rect x="325" y="171" width="179" height="1"/><rect x="2" y="172" width="93" height="1"/><rect x="327" y="172" width="178" height="1"/><rect x="2" y="173" width="93" height="1"/><rect x="328" y="173" width="177" height="1"/><rect x="2" y="174" width="93" height="1"/><rect x="328" y="174" width="177" height="1"/><rect x="2" y="175" width="93" height="1"/><rect x="329" y="175" width="177" height="1"/><rect x="2" y="176" width="93" height="1"/><rect x="331" y="176" width="175" height="1"/><rect x="2" y="177" width="93" height="1"/><rect x="330" y="177" width="177" height="1"/><rect x="2" y="178" width="93" height="1"/><rect x="330" y="178" width="177" height="1"/><rect x="2" y="179" width="93" height="1"/><rect x="333" y="179" width="175" height="1"/><rect x="2" y="180" width="93" height="1"/><rect x="334" y="180" width="174" height="1"/><rect x="2" y="181" width="93" height="1"/><rect x="335" y="181" width="173" height="1"/><rect x="2" y="182" width="93" height="1"/><rect x="335" y="182" width="174" height="1"/><rect x="2" y="183" width="93" height="1"/><rect x="335" y="183" width="174" height="1"/><rect x="2" y="184" width="93" height="1"/><rect x="337" y="184" width="172" height="1"/><rect x="2" y="185" width="93" height="1"/><rect x="337" y="185" width="173" height="1"/><rect x="2" y="186" width="93" height="1"/><rect x="337" y="186" width="173" height="1"/><rect x="2" y="187" width="93" height="1"/><rect x="340" y="187" width="170" height="1"/><rect x="2" y="188" width="93" height="1"/><rect x="341" y="188" width="169" height="1"/><rect x="2" y="189" width="93" height="1"/><rect x="341" y="189" width="170" height="1"/><rect x="2" y="190" width="93" height="1"/><rect x="342" y="190" width="169" height="1"/><rect x="2" y="191" width="93" height="1"/><rect x="342" y="191" width="169" height="1"/><rect x="2" y="192" width="93" height="1"/><rect x="343" y="192" width="168" height="1"/><rect x="2" y="193" width="93" height="1"/><rect x="344" y="193" width="168" height="1"/><rect x="2" y="194" width="93" height="1"/><rect x="344" y="194" width="168" height="1"/><rect x="2" y="195" width="93" height="1"/><rect x="345" y="195" width="167" height="1"/><rect x="2" y="196" width="93" height="1"/><rect x="346" y="196" width="166" height="1"/><rect x="2" y="197" width="93" height="1"/><rect x="345" y="197" width="167" height="1"/><rect x="2" y="198" width="93" height="1"/><rect x="345" y="198" width="167" height="1"/><rect x="2" y="199" width="93" height="1"/><rect x="345" y="199" width="167" height="1"/><rect x="2" y="200" width="93" height="1"/><rect x="348" y="200" width="164" height="1"/><rect x="2" y="201" width="93" height="1"/><rect x="348" y="201" width="164" height="1"/><rect x="2" y="202" width="93" height="1"/><rect x="349" y="202" width="163" height="1"/><rect x="2" y="203" width="93" height="1"/><rect x="349" y="203" width="163" height="1"/><rect x="2" y="204" width="93" height="1"/><rect x="350" y="204" width="162" height="1"/><rect x="2" y="205" width="93" height="1"/><rect x="351" y="205" width="161" height="1"/><rect x="2" y="206" width="93" height="1"/><rect x="351" y="206" width="161" height="1"/><rect x="2" y="207" width="93" height="1"/><rect x="351" y="207" width="161" height="1"/><rect x="2" y="208" width="93" height="1"/><rect x="352" y="208" width="160" height="1"/><rect x="2" y="209" width="93" height="1"/><rect x="352" y="209" width="160" height="1"/><rect x="2" y="210" width="93" height="1"/><rect x="353" y="210" width="159" height="1"/><rect x="2" y="211" width="93" height="1"/><rect x="353" y="211" width="159" height="1"/><rect x="2" y="212" width="93" height="1"/><rect x="354" y="212" width="158" height="1"/><rect x="2" y="213" width="93" height="1"/><rect x="354" y="213" width="158" height="1"/><rect x="2" y="214" width="93" height="1"/><rect x="354" y="214" width="158" height="1"/><rect x="2" y="215" width="93" height="1"/><rect x="355" y="215" width="157" height="1"/><rect x="2" y="216" width="93" height="1"/><rect x="355" y="216" width="157" height="1"/><rect x="2" y="217" width="93" height="1"/><rect x="355" y="217" width="157" height="1"/><rect x="2" y="218" width="93" height="1"/><rect x="355" y="218" width="157" height="1"/><rect x="2" y="219" width="93" height="1"/><rect x="355" y="219" width="157" height="1"/><rect x="2" y="220" width="93" height="1"/><rect x="356" y="220" width="156" height="1"/><rect x="2" y="221" width="93" height="1"/><rect x="356" y="221" width="156" height="1"/><rect x="2" y="222" width="93" height="1"/><rect x="356" y="222" width="156" height="1"/><rect x="2" y="223" width="93" height="1"/><rect x="356" y="223" width="156" height="1"/><rect x="2" y="224" width="93" height="1"/><rect x="354" y="224" width="158" height="1"/><rect x="2" y="225" width="93" height="1"/><rect x="354" y="225" width="158" height="1"/><rect x="2" y="226" width="93" height="1"/><rect x="354" y="226" width="158" height="1"/><rect x="2" y="227" width="93" height="1"/><rect x="354" y="227" width="158" height="1"/><rect x="2" y="228" width="93" height="1"/><rect x="356" y="228" width="156" height="1"/><rect x="2" y="229" width="93" height="1"/><rect x="356" y="229" width="156" height="1"/><rect x="2" y="230" width="93" height="1"/><rect x="356" y="230" width="156" height="1"/><rect x="2" y="231" width="93" height="1"/><rect x="356" y="231" width="156" height="1"/><rect x="2" y="232" width="93" height="1"/><rect x="356" y="232" width="156" height="1"/><rect x="2" y="233" width="93" height="1"/><rect x="356" y="233" width="156" height="1"/><rect x="2" y="234" width="93" height="1"/><rect x="356" y="234" width="156" height="1"/><rect x="2" y="235" width="93" height="1"/><rect x="356" y="235" width="156" height="1"/><rect x="2" y="236" width="93" height="1"/><rect x="356" y="236" width="156" height="1"/><rect x="2" y="237" width="93" height="1"/><rect x="356" y="237" width="156" height="1"/><rect x="2" y="238" width="93" height="1"/><rect x="356" y="238" width="156" height="1"/><rect x="2" y="239" width="93" height="1"/><rect x="356" y="239" width="156" height="1"/><rect x="2" y="240" width="93" height="1"/><rect x="356" y="240" width="156" height="1"/><rect x="2" y="241" width="93" height="1"/><rect x="354" y="241" width="158" height="1"/><rect x="2" y="242" width="93" height="1"/><rect x="354" y="242" width="158" height="1"/><rect x="2" y="243" width="93" height="1"/><rect x="354" y="243" width="158" height="1"/><rect x="2" y="244" width="93" height="1"/><rect x="354" y="244" width="158" height="1"/><rect x="2" y="245" width="93" height="1"/><rect x="354" y="245" width="158" height="1"/><rect x="2" y="246" width="93" height="1"/><rect x="354" y="246" width="158" height="1"/><rect x="2" y="247" width="93" height="1"/><rect x="354" y="247" width="158" height="1"/><rect x="2" y="248" width="93" height="1"/><rect x="356" y="248" width="156" height="1"/><rect x="2" y="249" width="94" height="1"/><rect x="354" y="249" width="158" height="1"/><rect x="2" y="250" width="94" height="1"/><rect x="355" y="250" width="157" height="1"/><rect x="2" y="251" width="94" height="1"/><rect x="354" y="251" width="158" height="1"/><rect x="2" y="252" width="93" height="1"/><rect x="354" y="252" width="158" height="1"/><rect x="2" y="253" width="94" height="1"/><rect x="354" y="253" width="158" height="1"/><rect x="2" y="254" width="94" height="1"/><rect x="356" y="254" width="156" height="1"/><rect x="2" y="255" width="94" height="1"/><rect x="356" y="255" width="156" height="1"/><rect x="2" y="256" width="93" height="1"/><rect x="356" y="256" width="156" height="1"/><rect x="2" y="257" width="93" height="1"/><rect x="356" y="257" width="156" height="1"/><rect x="2" y="258" width="93" height="1"/><rect x="356" y="258" width="156" height="1"/><rect x="2" y="259" width="93" height="1"/><rect x="356" y="259" width="156" height="1"/><rect x="2" y="260" width="93" height="1"/><rect x="356" y="260" width="156" height="1"/><rect x="2" y="261" width="93" height="1"/><rect x="356" y="261" width="156" height="1"/><rect x="2" y="262" width="93" height="1"/><rect x="356" y="262" width="156" height="1"/><rect x="2" y="263" width="93" height="1"/><rect x="356" y="263" width="156" height="1"/><rect x="2" y="264" width="93" height="1"/><rect x="356" y="264" width="156" height="1"/><rect x="2" y="265" width="93" height="1"/><rect x="356" y="265" width="156" height="1"/><rect x="2" y="266" width="93" height="1"/><rect x="356" y="266" width="156" height="1"/><rect x="2" y="267" width="93" height="1"/><rect x="355" y="267" width="157" height="1"/><rect x="2" y="268" width="93" height="1"/><rect x="355" y="268" width="157" height="1"/><rect x="2" y="269" width="93" height="1"/><rect x="355" y="269" width="157" height="1"/><rect x="2" y="270" width="93" height="1"/><rect x="354" y="270" width="158" height="1"/><rect x="2" y="271" width="93" height="1"/><rect x="354" y="271" width="158" height="1"/><rect x="2" y="272" width="93" height="1"/><rect x="353" y="272" width="159" height="1"/><rect x="2" y="273" width="93" height="1"/><rect x="352" y="273" width="160" height="1"/><rect x="2" y="274" width="93" height="1"/><rect x="352" y="274" width="160" height="1"/><rect x="2" y="275" width="93" height="1"/><rect x="351" y="275" width="161" height="1"/><rect x="2" y="276" width="93" height="1"/><rect x="351" y="276" width="161" height="1"/><rect x="2" y="277" width="93" height="1"/><rect x="350" y="277" width="162" height="1"/><rect x="2" y="278" width="93" height="1"/><rect x="350" y="278" width="162" height="1"/><rect x="2" y="279" width="93" height="1"/><rect x="349" y="279" width="163" height="1"/><rect x="2" y="280" width="93" height="1"/><rect x="348" y="280" width="164" height="1"/><rect x="2" y="281" width="93" height="1"/><rect x="348" y="281" width="164" height="1"/><rect x="2" y="282" width="93" height="1"/><rect x="347" y="282" width="165" height="1"/><rect x="2" y="283" width="93" height="1"/><rect x="345" y="283" width="167" height="1"/><rect x="2" y="284" width="93" height="1"/><rect x="345" y="284" width="167" height="1"/><rect x="2" y="285" width="93" height="1"/><rect x="345" y="285" width="166" height="1"/><rect x="2" y="286" width="93" height="1"/><rect x="345" y="286" width="166" height="1"/><rect x="2" y="287" width="93" height="1"/><rect x="343" y="287" width="167" height="1"/><rect x="2" y="288" width="93" height="1"/><rect x="342" y="288" width="168" height="1"/><rect x="2" y="289" width="93" height="1"/><rect x="341" y="289" width="168" height="1"/><rect x="2" y="290" width="93" height="1"/><rect x="338" y="290" width="171" height="1"/><rect x="2" y="291" width="93" height="1"/><rect x="337" y="291" width="171" height="1"/><rect x="2" y="292" width="93" height="1"/><rect x="338" y="292" width="170" height="1"/><rect x="2" y="293" width="93" height="1"/><rect x="334" y="293" width="2" height="1"/><rect x="337" y="293" width="170" height="1"/><rect x="2" y="294" width="93" height="1"/><rect x="334" y="294" width="173" height="1"/><rect x="2" y="295" width="93" height="1"/><rect x="334" y="295" width="172" height="1"/><rect x="2" y="296" width="93" height="1"/><rect x="334" y="296" width="172" height="1"/><rect x="2" y="297" width="93" height="1"/><rect x="330" y="297" width="175" height="1"/><rect x="2" y="298" width="93" height="1"/><rect x="330" y="298" width="175" height="1"/><rect x="2" y="299" width="93" height="1"/><rect x="327" y="299" width="177" height="1"/><rect x="2" y="300" width="93" height="1"/><rect x="327" y="300" width="177" height="1"/><rect x="2" y="301" width="93" height="1"/><rect x="326" y="301" width="178" height="1"/><rect x="2" y="302" width="93" height="1"/><rect x="324" y="302" width="179" height="1"/><rect x="2" y="303" width="93" height="1"/><rect x="321" y="303" width="181" height="1"/><rect x="2" y="304" width="93" height="1"/><rect x="321" y="304" width="181" height="1"/><rect x="2" y="305" width="93" height="1"/><rect x="318" y="305" width="183" height="1"/><rect x="2" y="306" width="93" height="1"/><rect x="316" y="306" width="185" height="1"/><rect x="2" y="307" width="93" height="1"/><rect x="314" y="307" width="186" height="1"/><rect x="2" y="308" width="93" height="1"/><rect x="311" y="308" width="188" height="1"/><rect x="2" y="309" width="93" height="1"/><rect x="309" y="309" width="189" height="1"/><rect x="2" y="310" width="93" height="1"/><rect x="307" y="310" width="191" height="1"/><rect x="2" y="311" width="93" height="1"/><rect x="304" y="311" width="193" height="1"/><rect x="2" y="312" width="93" height="1"/><rect x="300" y="312" width="197" height="1"/><rect x="2" y="313" width="93" height="1"/><rect x="299" y="313" width="197" height="1"/><rect x="2" y="314" width="93" height="1"/><rect x="296" y="314" width="200" height="1"/><rect x="2" y="315" width="93" height="1"/><rect x="294" y="315" width="201" height="1"/><rect x="2" y="316" width="93" height="1"/><rect x="291" y="316" width="204" height="1"/><rect x="2" y="317" width="93" height="1"/><rect x="287" y="317" width="207" height="1"/><rect x="2" y="318" width="93" height="1"/><rect x="280" y="318" width="3" height="1"/><rect x="285" y="318" width="208" height="1"/><rect x="2" y="319" width="93" height="1"/><rect x="278" y="319" width="215" height="1"/><rect x="2" y="320" width="93" height="1"/><rect x="278" y="320" width="214" height="1"/><rect x="2" y="321" width="93" height="1"/><rect x="277" y="321" width="215" height="1"/><rect x="2" y="322" width="93" height="1"/><rect x="272" y="322" width="219" height="1"/><rect x="2" y="323" width="93" height="1"/><rect x="268" y="323" width="222" height="1"/><rect x="2" y="324" width="93" height="1"/><rect x="268" y="324" width="222" height="1"/><rect x="2" y="325" width="93" height="1"/><rect x="264" y="325" width="225" height="1"/><rect x="2" y="326" width="93" height="1"/><rect x="261" y="326" width="228" height="1"/><rect x="2" y="327" width="93" height="1"/><rect x="259" y="327" width="228" height="1"/><rect x="2" y="328" width="93" height="1"/><rect x="254" y="328" width="233" height="1"/><rect x="2" y="329" width="93" height="1"/><rect x="254" y="329" width="232" height="1"/><rect x="2" y="330" width="93" height="1"/><rect x="249" y="330" width="236" height="1"/><rect x="2" y="331" width="93" height="1"/><rect x="247" y="331" width="238" height="1"/><rect x="2" y="332" width="93" height="1"/><rect x="244" y="332" width="241" height="1"/><rect x="2" y="333" width="93" height="1"/><rect x="240" y="333" width="244" height="1"/><rect x="2" y="334" width="93" height="1"/><rect x="237" y="334" width="247" height="1"/><rect x="2" y="335" width="93" height="1"/><rect x="234" y="335" width="246" height="1"/><rect x="2" y="336" width="93" height="1"/><rect x="231" y="336" width="250" height="1"/><rect x="2" y="337" width="93" height="1"/><rect x="226" y="337" width="255" height="1"/><rect x="2" y="338" width="95" height="1"/><rect x="222" y="338" width="255" height="1"/><rect x="2" y="339" width="95" height="1"/><rect x="211" y="339" width="3" height="1"/><rect x="219" y="339" width="258" height="1"/><rect x="2" y="340" width="95" height="1"/><rect x="211" y="340" width="266" height="1"/><rect x="2" y="341" width="99" height="1"/><rect x="210" y="341" width="264" height="1"/><rect x="475" y="341" width="2" height="1"/><rect x="2" y="342" width="109" height="1"/><rect x="195" y="342" width="3" height="1"/><rect x="199" y="342" width="275" height="1"/><rect x="2" y="343" width="118" height="1"/><rect x="192" y="343" width="282" height="1"/><rect x="2" y="344" width="127" height="1"/><rect x="143" y="344" width="17" height="1"/><rect x="164" y="344" width="5" height="1"/><rect x="182" y="344" width="288" height="1"/><rect x="2" y="345" width="468" height="1"/><rect x="2" y="346" width="467" height="1"/><rect x="2" y="347" width="466" height="1"/><rect x="2" y="348" width="465" height="1"/><rect x="2" y="349" width="465" height="1"/><rect x="2" y="350" width="462" height="1"/><rect x="2" y="351" width="462" height="1"/><rect x="2" y="352" width="462" height="1"/><rect x="2" y="353" width="458" height="1"/><rect x="2" y="354" width="458" height="1"/><rect x="2" y="355" width="455" height="1"/><rect x="2" y="356" width="454" height="1"/><rect x="2" y="357" width="454" height="1"/><rect x="2" y="358" width="451" height="1"/><rect x="2" y="359" width="451" height="1"/><rect x="2" y="360" width="451" height="1"/><rect x="2" y="361" width="448" height="1"/><rect x="2" y="362" width="447" height="1"/><rect x="2" y="363" width="444" height="1"/><rect x="2" y="364" width="442" height="1"/><rect x="2" y="365" width="440" height="1"/><rect x="2" y="366" width="437" height="1"/><rect x="2" y="367" width="437" height="1"/><rect x="2" y="368" width="433" height="1"/><rect x="2" y="369" width="430" height="1"/><rect x="2" y="370" width="429" height="1"/><rect x="2" y="371" width="425" height="1"/><rect x="2" y="372" width="423" height="1"/><rect x="2" y="373" width="420" height="1"/><rect x="2" y="374" width="418" height="1"/><rect x="2" y="375" width="414" height="1"/><rect x="2" y="376" width="412" height="1"/><rect x="2" y="377" width="408" height="1"/><rect x="2" y="378" width="406" height="1"/><rect x="2" y="379" width="404" height="1"/><rect x="2" y="380" width="400" height="1"/><rect x="2" y="381" width="396" height="1"/><rect x="2" y="382" width="394" height="1"/><rect x="2" y="383" width="390" height="1"/><rect x="2" y="384" width="389" height="1"/><rect x="2" y="385" width="384" height="1"/><rect x="2" y="386" width="380" height="1"/><rect x="2" y="387" width="380" height="1"/><rect x="2" y="388" width="374" height="1"/><rect x="2" y="389" width="372" height="1"/><rect x="2" y="390" width="368" height="1"/><rect x="2" y="391" width="364" height="1"/><rect x="2" y="392" width="364" height="1"/><rect x="2" y="393" width="360" height="1"/><rect x="2" y="394" width="356" height="1"/><rect x="2" y="395" width="354" height="1"/><rect x="2" y="396" width="349" height="1"/><rect x="2" y="397" width="346" height="1"/><rect x="2" y="398" width="343" height="1"/><rect x="2" y="399" width="340" height="1"/><rect x="2" y="400" width="335" height="1"/><rect x="2" y="401" width="332" height="1"/><rect x="2" y="402" width="328" height="1"/><rect x="2" y="403" width="324" height="1"/><rect x="2" y="404" width="322" height="1"/><rect x="2" y="405" width="314" height="1"/><rect x="2" y="406" width="309" height="1"/><rect x="2" y="407" width="304" height="1"/><rect x="2" y="408" width="297" height="1"/><rect x="2" y="409" width="293" height="1"/><rect x="296" y="409" width="3" height="1"/><rect x="2" y="410" width="284" height="1"/><rect x="2" y="411" width="275" height="1"/><rect x="2" y="412" width="274" height="1"/><rect x="2" y="413" width="265" height="1"/><rect x="2" y="414" width="259" height="1"/><rect x="2" y="415" width="253" height="1"/><rect x="256" y="415" width="5" height="1"/><rect x="2" y="416" width="241" height="1"/><rect x="259" y="416" width="2" height="1"/><rect x="2" y="417" width="236" height="1"/><rect x="2" y="418" width="230" height="1"/><rect x="2" y="419" width="223" height="1"/><rect x="2" y="420" width="216" height="1"/><rect x="2" y="421" width="211" height="1"/><rect x="2" y="422" width="209" height="1"/><rect x="2" y="423" width="209" height="1"/><rect x="2" y="424" width="209" height="1"/><rect x="2" y="425" width="209" height="1"/><rect x="2" y="426" width="209" height="1"/><rect x="2" y="427" width="209" height="1"/><rect x="2" y="428" width="209" height="1"/><rect x="2" y="429" width="209" height="1"/><rect x="2" y="430" width="209" height="1"/><rect x="2" y="431" width="209" height="1"/><rect x="2" y="432" width="209" height="1"/><rect x="2" y="433" width="209" height="1"/><rect x="2" y="434" width="209" height="1"/><rect x="2" y="435" width="209" height="1"/><rect x="2" y="436" width="209" height="1"/><rect x="2" y="437" width="209" height="1"/><rect x="2" y="438" width="209" height="1"/><rect x="2" y="439" width="209" height="1"/><rect x="2" y="440" width="209" height="1"/><rect x="2" y="441" width="209" height="1"/><rect x="2" y="442" width="209" height="1"/><rect x="2" y="443" width="209" height="1"/><rect x="2" y="444" width="209" height="1"/><rect x="2" y="445" width="209" height="1"/><rect x="2" y="446" width="209" height="1"/><rect x="2" y="447" width="209" height="1"/><rect x="2" y="448" width="209" height="1"/><rect x="2" y="449" width="209" height="1"/><rect x="2" y="450" width="209" height="1"/><rect x="2" y="451" width="209" height="1"/><rect x="2" y="452" width="209" height="1"/><rect x="2" y="453" width="209" height="1"/><rect x="2" y="454" width="209" height="1"/><rect x="2" y="455" width="209" height="1"/><rect x="2" y="456" width="209" height="1"/><rect x="2" y="457" width="209" height="1"/><rect x="2" y="458" width="209" height="1"/><rect x="2" y="459" width="209" height="1"/><rect x="2" y="460" width="209" height="1"/><rect x="2" y="461" width="209" height="1"/><rect x="2" y="462" width="209" height="1"/><rect x="2" y="463" width="209" height="1"/><rect x="2" y="464" width="209" height="1"/><rect x="2" y="465" width="209" height="1"/><rect x="2" y="466" width="209" height="1"/><rect x="2" y="467" width="209" height="1"/><rect x="2" y="468" width="209" height="1"/><rect x="2" y="469" width="209" height="1"/><rect x="2" y="470" width="209" height="1"/><rect x="2" y="471" width="209" height="1"/><rect x="2" y="472" width="209" height="1"/><rect x="2" y="473" width="209" height="1"/><rect x="2" y="474" width="209" height="1"/><rect x="2" y="475" width="209" height="1"/><rect x="2" y="476" width="209" height="1"/><rect x="2" y="477" width="209" height="1"/><rect x="2" y="478" width="209" height="1"/><rect x="2" y="479" width="209" height="1"/><rect x="2" y="480" width="209" height="1"/><rect x="2" y="481" width="209" height="1"/><rect x="2" y="482" width="209" height="1"/><rect x="2" y="483" width="209" height="1"/><rect x="2" y="484" width="209" height="1"/><rect x="2" y="485" width="209" height="1"/><rect x="2" y="486" width="209" height="1"/><rect x="2" y="487" width="209" height="1"/><rect x="2" y="488" width="209" height="1"/><rect x="2" y="489" width="209" height="1"/><rect x="2" y="490" width="209" height="1"/><rect x="2" y="491" width="209" height="1"/><rect x="2" y="492" width="209" height="1"/><rect x="2" y="493" width="209" height="1"/><rect x="2" y="494" width="209" height="1"/><rect x="2" y="495" width="209" height="1"/><rect x="2" y="496" width="209" height="1"/><rect x="2" y="497" width="209" height="1"/><rect x="2" y="498" width="209" height="1"/><rect x="2" y="499" width="209" height="1"/><rect x="2" y="500" width="209" height="1"/><rect x="2" y="501" width="209" height="1"/><rect x="2" y="502" width="209" height="1"/><rect x="2" y="503" width="209" height="1"/><rect x="2" y="504" width="209" height="1"/><rect x="2" y="505" width="209" height="1"/><rect x="2" y="506" width="209" height="1"/><rect x="2" y="507" width="209" height="1"/><rect x="2" y="508" width="209" height="1"/><rect x="0" y="509" width="211" height="1"/><rect x="0" y="510" width="211" height="1"/><rect x="52" y="511" width="3" height="1"/><rect x="154" y="511" width="9" height="1"/><rect x="185" y="511" width="7" height="1"/><rect x="202" y="511" width="7" height="1"/></g></svg>
